<svg width="44" height="36" viewBox="0 0 44 36" fill="none" xmlns="http://www.w3.org/2000/svg">
<path d="M0 18.3602C0 19.5837 0.467876 20.7329 1.33315 21.5982L14.0216 34.2925C14.9779 35.2488 16.5284 35.2488 17.4827 34.2925C18.44 33.3362 18.4381 31.7789 17.4827 30.8216L7.13267 20.4755L41.5686 20.4755C42.9213 20.4745 44 19.3655 44 18.0118C44 18.0088 44 17.9873 44 17.9844C44 16.6316 42.9213 15.5148 41.5686 15.5148L7.13169 15.5148L17.4798 5.17451C18.4371 4.21722 18.4371 2.66481 17.4798 1.7085C16.5235 0.750237 14.973 0.751217 14.0167 1.70948L1.33315 14.4048C0.466896 15.2681 0 16.4202 0 17.6437C0 17.7641 0 18.2398 0 18.3602Z" fill="white"/>
</svg>
